<svg id="Capa_1" enable-background="new 0 0 512 512" height="512" viewBox="0 0 512 512" width="512" xmlns="http://www.w3.org/2000/svg"><g><g><path d="m497 512h-332c-8.291 0-15-6.709-15-15v-245.896c0-6.855 4.629-12.832 11.279-14.531 20.244-5.2 38.877-16.553 52.471-31.992 4.131-4.688 10.723-6.328 16.553-4.116 5.83 2.197 9.697 7.793 9.697 14.033v25.502h180v-90h-165c-8.291 0-15-6.709-15-15 0-18.237-4.922-36.387-14.209-52.515-2.667-4.644-2.667-10.356.029-14.985 2.666-4.644 7.617-7.5 12.979-7.5h258.201c8.291 0 15 6.709 15 15v422c0 8.291-6.709 15-15 15z" fill="#515566"/></g><path d="m512 497v-422c0-8.291-6.709-15-15-15h-167v90h90v90h-90v272h167c8.291 0 15-6.709 15-15z" fill="#35354d"/><g><path d="m435 270h-210c-8.291 0-15-6.709-15-15v-40.503c0-3.633 1.318-7.134 3.691-9.873 16.963-19.409 26.309-44.136 26.309-69.624 0-8.291 6.709-15 15-15h180c8.291 0 15 6.709 15 15v120c0 8.291-6.709 15-15 15z" fill="#91f2a1"/></g><path d="m330 270h105c8.291 0 15-6.709 15-15v-120c0-8.291-6.709-15-15-15h-105z" fill="#52cc7b"/><g><path d="m135 270c-74.443 0-135-60.557-135-135s60.557-135 135-135c74.832 0 135 61.223 135 135 0 75.202-60.942 135-135 135z" fill="#ffea80"/></g><path d="m270 135c0-73.777-60.168-135-135-135v270c74.059 0 135-59.799 135-135z" fill="#fc6"/><g id="Budget_2_"><path d="m180 165c0-24.814-20.186-45-45-45-8.262 0-15-6.724-15-15s6.738-15 15-15c4.746 0 9.141 2.197 12.012 6.021 5.039 6.65 14.443 7.925 21.006 2.959 6.621-4.98 7.939-14.385 2.959-21.006-5.425-7.224-12.779-12.22-20.977-15.123v-17.851c0-8.291-6.709-15-15-15s-15 6.709-15 15v17.763c-17.422 6.213-30 22.707-30 42.237 0 24.814 20.186 45 45 45 8.262 0 15 6.724 15 15 0 13.037-19.102 19.482-27.012 8.979-5.01-6.636-14.443-7.925-21.006-2.959-6.621 4.98-7.939 14.385-2.959 21.006 5.425 7.224 12.779 12.22 20.977 15.123v17.851c0 8.291 6.709 15 15 15s15-6.709 15-15v-17.763c17.422-6.213 30-22.707 30-42.237z" fill="#fc6"/><g><path d="m255 330h-30c-8.291 0-15-6.709-15-15s6.709-15 15-15h30c8.291 0 15 6.709 15 15s-6.709 15-15 15z" fill="#f3f5f9"/></g><g><path d="m345 330h-30c-8.291 0-15-6.709-15-15s6.709-15 15-15h30c8.291 0 15 6.709 15 15s-6.709 15-15 15z" fill="#f3f5f9"/></g><g><path d="m435 330h-30c-8.291 0-15-6.709-15-15s6.709-15 15-15h30c8.291 0 15 6.709 15 15s-6.709 15-15 15z" fill="#e1e6f0"/></g><g><path d="m255 390h-30c-8.291 0-15-6.709-15-15s6.709-15 15-15h30c8.291 0 15 6.709 15 15s-6.709 15-15 15z" fill="#f3f5f9"/></g><g><path d="m345 390h-30c-8.291 0-15-6.709-15-15s6.709-15 15-15h30c8.291 0 15 6.709 15 15s-6.709 15-15 15z" fill="#f3f5f9"/></g><g><path d="m435 390h-30c-8.291 0-15-6.709-15-15s6.709-15 15-15h30c8.291 0 15 6.709 15 15s-6.709 15-15 15z" fill="#e1e6f0"/></g><g><path d="m255 450h-30c-8.291 0-15-6.709-15-15s6.709-15 15-15h30c8.291 0 15 6.709 15 15s-6.709 15-15 15z" fill="#f3f5f9"/></g><g><path d="m435 450h-120c-8.291 0-15-6.709-15-15s6.709-15 15-15h120c8.291 0 15 6.709 15 15s-6.709 15-15 15z" fill="#fc6"/></g></g><g fill="#ffa64d"><path d="m150 225v-17.763c17.422-6.213 30-22.707 30-42.237 0-24.814-20.186-45-45-45v30c8.262 0 15 6.724 15 15 0 8.152-7.469 13.726-15 14.191v60.809c8.291 0 15-6.709 15-15z"/><path d="m147.012 96.021c5.039 6.65 14.443 7.925 21.006 2.959 6.621-4.98 7.939-14.385 2.959-21.006-5.425-7.224-12.779-12.22-20.977-15.123v-17.851c0-8.291-6.709-15-15-15v60c4.746 0 9.141 2.197 12.012 6.021z"/></g><path d="m330 390h15c8.291 0 15-6.709 15-15s-6.709-15-15-15h-15z" fill="#e1e6f0"/><path d="m330 330h15c8.291 0 15-6.709 15-15s-6.709-15-15-15h-15z" fill="#e1e6f0"/><path d="m435 420h-60v30h60c8.291 0 15-6.709 15-15s-6.709-15-15-15z" fill="#ffa64d"/></g></svg>