<svg id="Capa_1" enable-background="new 0 0 512 512" height="512" viewBox="0 0 512 512" width="512" xmlns="http://www.w3.org/2000/svg"><g><path d="m430.596 512h-349.192c-14.069 0-25.475-11.405-25.475-25.475v-461.05c.001-14.07 11.406-25.475 25.475-25.475h349.191c14.069 0 25.475 11.405 25.475 25.475v461.05c0 14.07-11.405 25.475-25.474 25.475z" fill="#f9f6f9"/><path d="m430.596 0h-19.439c14.069 0 25.475 11.405 25.475 25.475v461.05c0 14.069-11.405 25.475-25.475 25.475h19.439c14.069 0 25.475-11.405 25.475-25.475v-461.05c-.001-14.07-11.406-25.475-25.475-25.475z" fill="#dfeaef"/><g fill="#5ea570"><path d="m161.662 33.85c-.025 0-.051 0-.076 0-4.268.041-7.693 3.534-7.652 7.801l.185 19.061-16.19-23.445c-1.921-2.783-5.425-3.99-8.658-2.986-3.227 1.006-5.427 3.995-5.427 7.376v43.439c0 4.268 3.459 7.726 7.726 7.726 4.268 0 7.726-3.459 7.726-7.726v-18.653l15.288 22.138c2.146 3.104 5.908 4.462 9.355 3.385 3.555-1.11 5.853-4.382 5.853-8.41l-.406-42.053c-.041-4.242-3.492-7.653-7.724-7.653z"/><path d="m102.224 33.85c-4.268 0-7.726 3.459-7.726 7.726v43.52c0 4.268 3.459 7.726 7.726 7.726 4.268 0 7.726-3.459 7.726-7.726v-43.52c0-4.267-3.458-7.726-7.726-7.726z"/><path d="m302.232 33.85c-4.268 0-7.726 3.459-7.726 7.726v43.52c0 4.268 3.459 7.726 7.726 7.726s7.726-3.459 7.726-7.726v-43.52c0-4.267-3.458-7.726-7.726-7.726z"/><path d="m409.776 77.171h-10.444v-6.108h9.104c4.268 0 7.726-3.459 7.726-7.726s-3.459-7.726-7.726-7.726h-9.104v-6.109h10.444c4.268 0 7.726-3.459 7.726-7.726s-3.459-7.726-7.726-7.726h-18.17c-4.268 0-7.726 3.459-7.726 7.726v43.122c0 4.268 3.459 7.726 7.726 7.726h18.17c4.268 0 7.726-3.459 7.726-7.726.001-4.268-3.458-7.727-7.726-7.727z"/><path d="m370.553 73.031c-3.273-2.74-8.144-2.309-10.885.96-.305.364-.635.705-.984 1.016-1.76 1.568-4.048 2.363-6.802 2.363-7.738 0-14.034-6.295-14.034-14.033s6.296-14.034 14.034-14.034c2.813 0 5.524.827 7.841 2.392 3.536 2.387 8.339 1.459 10.727-2.077s1.459-8.339-2.077-10.727c-4.881-3.298-10.583-5.04-16.491-5.04-16.26 0-29.487 13.227-29.487 29.487 0 16.259 13.227 29.486 29.487 29.486 6.565 0 12.472-2.171 17.078-6.276.906-.807 1.765-1.692 2.552-2.631 2.741-3.271 2.312-8.144-.959-10.886z"/><path d="m217.561 34.325c-4.046-1.345-8.423.846-9.768 4.896l-7.948 23.923-8.366-24.101c-1.399-4.032-5.804-6.169-9.832-4.766-4.031 1.399-6.165 5.801-4.766 9.832l14.897 42.919c1.232 3.473 4.525 5.795 8.206 5.795h.057c3.704-.025 6.994-2.397 8.204-5.957l14.21-42.774c1.348-4.049-.844-8.422-4.894-9.767z"/><path d="m252.488 33.85c-16.259 0-29.486 13.227-29.486 29.487 0 16.259 13.227 29.486 29.486 29.486s29.486-13.227 29.486-29.486c-.001-16.26-13.228-29.487-29.486-29.487zm0 43.52c-7.738 0-14.033-6.295-14.033-14.033s6.295-14.034 14.033-14.034 14.033 6.296 14.033 14.034-6.295 14.033-14.033 14.033z"/></g><g><path d="m409.776 140.312h-92.952c-4.268 0-7.726-3.459-7.726-7.726s3.459-7.726 7.726-7.726h92.952c4.268 0 7.726 3.459 7.726 7.726s-3.458 7.726-7.726 7.726z" fill="#544f57"/></g><g><path d="m409.776 174.449h-39.696c-4.268 0-7.726-3.459-7.726-7.726 0-4.268 3.459-7.726 7.726-7.726h39.696c4.268 0 7.726 3.459 7.726 7.726.001 4.267-3.458 7.726-7.726 7.726z" fill="#544f57"/></g><g><path d="m399.474 475.193c-10.971 0-16.454-8.283-20.082-13.764-3.453-5.216-4.896-6.84-7.197-6.84s-3.744 1.624-7.197 6.84c-3.629 5.481-9.112 13.764-20.082 13.764-10.972 0-16.456-8.283-20.086-13.763-3.454-5.217-4.897-6.841-7.199-6.841s-3.745 1.625-7.199 6.841c-3.629 5.48-9.113 13.763-20.085 13.763-4.268 0-7.726-3.459-7.726-7.726s3.459-7.726 7.726-7.726c2.302 0 3.745-1.625 7.199-6.841 3.629-5.48 9.113-13.763 20.085-13.763s16.456 8.282 20.083 13.763c3.455 5.216 4.898 6.841 7.201 6.841 2.301 0 3.744-1.624 7.197-6.84 3.629-5.481 9.112-13.764 20.082-13.764s16.454 8.283 20.083 13.764c3.453 5.216 4.896 6.84 7.197 6.84 4.268 0 7.726 3.459 7.726 7.726s-3.458 7.726-7.726 7.726z" fill="#544f57"/></g><path d="m388.354 391.211h-264.708c-5.756 0-10.421-4.666-10.421-10.421v-160.48c0-5.756 4.666-10.421 10.421-10.421h264.708c5.756 0 10.421 4.666 10.421 10.421v160.48c0 5.755-4.666 10.421-10.421 10.421z" fill="#8bc852"/><path d="m388.354 209.889h-16.605c5.756 0 10.421 4.666 10.421 10.421v160.48c0 5.756-4.666 10.421-10.421 10.421h16.605c5.756 0 10.421-4.666 10.421-10.421v-160.48c0-5.756-4.666-10.421-10.421-10.421z" fill="#7dbe3b"/><path d="m398.775 326.06h-64.91v-51.02h64.91v-15.909h-64.91v-49.243h-15.909v49.243h-204.731v15.909h204.731v51.02h-204.731v15.909h204.731v49.242h15.909v-49.242h64.91z" fill="#5ea570"/><g fill="#528e61"><path d="m382.17 326.06h16.605v15.909h-16.605z"/><path d="m382.17 259.131h16.605v15.909h-16.605z"/></g></g></svg>